<?xml version="1.0" encoding="UTF-8"?>
<svg xmlns="http://www.w3.org/2000/svg" xmlns:xlink="http://www.w3.org/1999/xlink" width="0" height="0">
  <defs>
    <symbol viewBox="0 0 32 28" fill="none" id="play">
      <path
        d="M10.345 23.287c.415 0 .763-.15 1.22-.407l12.742-7.404c.838-.481 1.178-.855 1.178-1.46 0-.599-.34-.972-1.178-1.462L11.565 5.158c-.457-.265-.805-.407-1.22-.407-.789 0-1.345.606-1.345 1.57V21.71c0 .971.556 1.577 1.345 1.577z"
        fill="currentColor" fill-rule="nonzero" />
    </symbol>
    <symbol viewBox="0 0 32 28" fill="none" id="skip">
      <path
        d="M18.14 20.68c.365 0 .672-.107 1.038-.323l8.508-4.997c.623-.365.938-.814.938-1.37 0-.564-.307-.988-.938-1.361l-8.508-4.997c-.366-.216-.68-.324-1.046-.324-.73 0-1.337.556-1.337 1.569v4.773c-.108-.399-.406-.73-.904-1.021L7.382 7.632c-.357-.216-.672-.324-1.037-.324-.73 0-1.345.556-1.345 1.569v10.235c0 1.013.614 1.569 1.345 1.569.365 0 .68-.108 1.037-.324l8.509-4.997c.49-.29.796-.631.904-1.038v4.79c0 1.013.615 1.569 1.345 1.569z"
        fill="currentColor" fill-rule="nonzero"></path>
    </symbol>
  </defs>
</svg>